<svg xmlns="http://www.w3.org/2000/svg" viewBox="0 0 24 24" fill="none">
  <circle cx="12" cy="12" r="11" fill="#e0f2e0" stroke="#4CAF50" stroke-width="1" />
  <path d="M12 5c-1 0-2 1-2 3s1 3 2 3 2-1 2-3-1-3-2-3z" fill="#FFEB3B" stroke="#F9A825" stroke-width="0.5" />
  <path d="M7 10c-1 0-2 1-2 3s1 3 2 3 2-1 2-3-1-3-2-3z" fill="#FFEB3B" stroke="#F9A825" stroke-width="0.5" />
  <path d="M17 10c-1 0-2 1-2 3s1 3 2 3 2-1 2-3-1-3-2-3z" fill="#FFEB3B" stroke="#F9A825" stroke-width="0.5" />
  <path d="M9 16c-1 0-2 1-2 3s1 3 2 3 2-1 2-3-1-3-2-3z" fill="#FFEB3B" stroke="#F9A825" stroke-width="0.5" />
  <path d="M15 16c-1 0-2 1-2 3s1 3 2 3 2-1 2-3-1-3-2-3z" fill="#FFEB3B" stroke="#F9A825" stroke-width="0.5" />
</svg> 